<?xml version="1.0" encoding="utf-8"?>
<!-- Generator: Adobe Illustrator 25.4.1, SVG Export Plug-In . SVG Version: 6.00 Build 0)  -->
<svg version="1.1" id="Layer_1" xmlns="http://www.w3.org/2000/svg" xmlns:xlink="http://www.w3.org/1999/xlink" x="0px" y="0px"
	 viewBox="0 0 569.39 192.39" style="enable-background:new 0 0 569.39 192.39;" xml:space="preserve">
<style type="text/css">
	.st0{fill:#5E6263;}
	.st1{fill:#979899;}
	.st2{fill:#192953;}
	.st3{opacity:0.5;fill:#192953;}
</style>
<path class="st0" d="M82.72,30.4c-0.49,8.56-1.33,18.12-3.05,27.59c-2,10.99-4.92,21.66-9.43,31.86
	c-5.78,13.09-13.62,24.59-25.01,33.31c-3.78,2.89-7.83,5.32-12.28,7.03c-1.07,0.41-1.68,0.23-2.18-0.83
	c-3.49-7.34-6.2-14.96-7.03-23.11c-2.15-21.33,3.68-40.34,17.04-56.74c9.98-12.24,23.16-19.56,38.29-23.28
	C82.72,25.35,82.74,25.44,82.72,30.4z"/>
<path class="st1" d="M189.49,122.62c-0.29,1.46-0.6,2.93-0.86,4.4c-1.89,10.87-3.78,21.74-5.63,32.61
	c-0.16,0.95-0.51,1.24-1.45,1.21c-2.34-0.07-4.69-0.06-7.03,0c-0.95,0.02-1.16-0.19-0.97-1.19c2-10.17,3.95-20.36,5.9-30.54
	c2.28-11.9,4.54-23.8,6.89-36.09c1.34,3.08,2.54,5.84,3.73,8.6c5.66,13.06,11.31,26.12,16.97,39.18c0.15,0.34,0.19,0.87,0.6,0.9
	c0.52,0.04,0.58-0.55,0.74-0.91c5.48-12.2,10.95-24.41,16.42-36.62c1.47-3.29,2.93-6.59,4.42-9.87c0.12-0.27,0.19-0.64,0.66-0.77
	c0.96,5.58,1.92,11.14,2.88,16.7c2.68,15.56,5.37,31.12,8.05,46.68c0.17,0.98,0.31,1.97,0.53,2.94c0.15,0.65,0.1,0.98-0.67,0.97
	c-2.58-0.03-5.15-0.04-7.73,0.01c-1.06,0.02-0.92-0.78-1.01-1.36c-0.8-4.98-1.58-9.96-2.36-14.94c-1.09-6.96-2.17-13.91-3.26-20.87
	c-0.05-0.32-0.14-0.64-0.54-1.07c-3.03,6.74-6.07,13.47-9.08,20.21c-3.01,6.74-6.01,13.49-9.15,20.55
	c-6-13.81-11.85-27.3-17.71-40.79C189.71,122.59,189.6,122.61,189.49,122.62z"/>
<path class="st1" d="M250.26,128.89c-0.34-17.36,14.63-32.87,32.6-32.88c17.65-0.01,32.95,15.58,32.34,34.31
	c-0.55,16.71-14.71,31.78-32.95,31.63C266.28,161.83,250.01,148.75,250.26,128.89z M282.64,153.23c13.09,0,23.22-10.55,23.29-24.1
	c0.08-14.25-10.97-24.89-24.11-24.43c-11.6,0.41-22.23,10.65-22.35,23.97C259.33,143.27,271.27,153.72,282.64,153.23z"/>
<path class="st2" d="M93.79,107.47c0.39-2.15,0.77-4.3,1.16-6.45c1.15-6.41,1.63-12.9,1.99-19.39c0.55-9.99,0.46-19.98-0.01-29.97
	c-0.3-6.39-0.64-12.78-1.31-19.15c-0.22-2.1-0.28-4.22-0.5-6.32c-0.09-0.91,0.11-1.32,1.08-1.26c16.2,0.86,30.95,5.53,43.03,17.09
	c1.47,1.4,2.68,3.07,4.09,4.55c0.79,0.83,0.58,1.39-0.08,2.17c-5.28,6.3-10.52,12.64-15.78,18.97
	c-9.92,11.93-19.84,23.86-29.76,35.79c-1.17,1.41-2.36,2.79-3.55,4.19C94.03,107.61,93.91,107.54,93.79,107.47z"/>
<path class="st1" d="M453.78,93.79c1.57,3.52,3.09,6.89,4.58,10.28c4.55,10.34,9.1,20.68,13.65,31.01
	c3.54,8.03,7.08,16.07,10.62,24.1c0.71,1.62,0.7,1.63-1.1,1.63c-2.34,0-4.69-0.03-7.03,0.02c-0.81,0.02-1.21-0.22-1.55-1.03
	c-1.82-4.44-3.75-8.83-5.57-13.26c-0.37-0.89-0.83-1.2-1.77-1.2c-8.2,0.03-16.4,0.03-24.6-0.01c-0.91,0-1.29,0.36-1.64,1.16
	c-1.94,4.43-3.97,8.83-5.92,13.26c-0.36,0.81-0.79,1.11-1.68,1.09c-2.76-0.07-5.52-0.02-8.58-0.02
	C433.4,138.43,443.55,116.2,453.78,93.79z M453.43,136.64c2.76,0,5.52-0.03,8.29,0.02c1.06,0.02,1.43-0.23,0.81-1.26
	c-0.19-0.32-0.31-0.69-0.46-1.04c-2.62-6.1-5.23-12.21-7.85-18.31c-0.14-0.32-0.13-0.82-0.61-0.84c-0.33-0.01-0.39,0.37-0.5,0.62
	c-2.95,6.58-5.9,13.16-8.86,19.73c-0.4,0.88-0.19,1.13,0.76,1.11C447.82,136.61,450.62,136.65,453.43,136.64z"/>
<path class="st1" d="M353,142.83c0.2-4.53-2.04-7.56-5.73-9.7c-3.1-1.79-6.49-2.93-9.72-4.43c-3.97-1.83-7.6-4.13-10.02-7.96
	c-3.85-6.09-2.4-14.6,2.83-19.53c5.67-5.35,15.36-6.68,21.99-3.1c3.27,1.77,5.71,4.4,7.69,7.53c0.27,0.42,0.53,0.74-0.13,1.13
	c-2.07,1.21-4.11,2.46-6.13,3.74c-0.63,0.39-0.85-0.02-1.07-0.43c-0.59-1.09-1.32-2.1-2.17-2.97c-3.63-3.72-11.35-3.1-14.45,1.11
	c-2.43,3.3-1.82,7.47,1.44,9.95c2.67,2.03,5.84,2.98,8.84,4.27c3.32,1.43,6.58,2.94,9.43,5.25c3.89,3.15,6.05,7.24,6.36,12.23
	c0.53,8.55-2.67,15.22-10.08,19.55c-7.21,4.21-17.65,2.97-23.52-2.84c-3.38-3.34-4.99-7.63-5.88-12.25
	c-0.1-0.49,0.01-0.84,0.54-0.96c2.65-0.59,5.29-1.2,7.94-1.79c0.99-0.22,0.75,0.66,0.83,1.1c0.41,2.3,0.77,4.59,2.18,6.55
	c2.47,3.45,7.11,4.87,11.75,3.57c3.69-1.04,6.6-4.63,6.98-8.63C352.93,143.78,352.96,143.3,353,142.83z"/>
<path class="st1" d="M418.14,146.39c0,3.66,0,7.03,0,10.39c0,0.74-0.63,0.91-1.1,1.15c-3.91,2.03-8.02,3.37-12.41,3.81
	c-7.37,0.73-14.21-0.78-20.51-4.81c-15.65-10-19.69-31.69-8.77-46.9c6.59-9.19,15.43-13.88,26.58-13.97
	c5.33-0.04,10.34,1.42,15.08,3.9c0.85,0.44,1.2,1,1.17,2.01c-0.08,2.62-0.02,5.24-0.03,7.86c0,0.41,0.22,0.96-0.17,1.19
	c-0.44,0.26-0.72-0.3-1.03-0.54c-5.54-4.31-11.7-6.57-18.72-5.59c-8.59,1.2-14.52,6.24-17.79,14.17
	c-3.38,8.21-2.89,16.44,2.01,24.01c7.32,11.31,22.23,13.33,32.13,5.96C415.67,148.21,416.79,147.39,418.14,146.39z"/>
<path class="st1" d="M503.37,133.44c0,8.63-0.02,17.26,0.03,25.89c0.01,1.19-0.3,1.57-1.48,1.51c-2.1-0.1-4.22-0.09-6.32,0
	c-1.09,0.05-1.33-0.34-1.32-1.38c0.04-9.35,0.02-18.69,0.02-28.04c0-7.87-0.04-15.74,0.04-23.6c0.01-1.44-0.43-1.72-1.73-1.69
	c-3.79,0.09-7.59,0-11.39,0.05c-0.96,0.01-1.31-0.24-1.27-1.27c0.07-2,0.08-4.01,0-6.01c-0.04-1.1,0.24-1.48,1.38-1.46
	c4.64,0.06,9.28,0.03,13.92,0.03c7.03,0,14.06,0.03,21.09-0.03c1.15-0.01,1.43,0.35,1.39,1.45c-0.08,2.05-0.06,4.1,0,6.15
	c0.02,0.88-0.26,1.14-1.12,1.13c-3.89-0.04-7.78,0.03-11.67-0.04c-1.2-0.02-1.59,0.24-1.58,1.55
	C503.41,116.27,503.37,124.86,503.37,133.44z"/>
<path class="st0" d="M353.61,81.06c59.46,0,118.92,0,178.39,0c0.42,0,0.84,0,1.26,0.02c0.56,0.03,0.49,0.48,0.48,0.85
	c0,0.36,0.09,0.82-0.47,0.86c-0.47,0.03-0.94,0.02-1.4,0.02c-118.83,0-237.66,0-356.49,0c-0.52,0-1.03-0.02-1.55,0
	c-0.63,0.02-0.62-0.42-0.62-0.87c0-0.44-0.04-0.89,0.61-0.88c0.37,0.01,0.75,0,1.12,0C234.5,81.06,294.05,81.06,353.61,81.06z"/>
<path class="st1" d="M524.69,129.15c0-10.06,0.02-20.12-0.02-30.18c-0.01-1.17,0.29-1.57,1.48-1.52c2.2,0.09,4.4,0.06,6.6,0
	c0.95-0.03,1.16,0.31,1.16,1.24c-0.03,20.31-0.03,40.62,0,60.94c0,0.92-0.21,1.25-1.16,1.23c-2.25-0.07-4.5-0.08-6.75,0
	c-1.07,0.04-1.33-0.3-1.33-1.37C524.71,149.37,524.69,139.26,524.69,129.15z"/>
<path class="st0" d="M160.32,126.87c-2.17,1.85-4.4,3.14-6.58,4.48c-4.97,3.04-10.05,5.84-15.73,7.32c-2.43,0.63-4.92,0.9-7.35,0.38
	c-4.31-0.92-6.99-4.46-7.72-9.64c-0.95-6.78-0.08-13.42,1.3-20.04c4.13-19.76,11.49-38.36,19.48-56.75
	c0.11-0.26,0.13-0.59,0.67-0.63c0.45,0.79-0.17,1.49-0.41,2.14c-4.18,11.34-8.03,22.78-11.1,34.48c-2.42,9.22-4.39,18.52-4.65,28.1
	c-0.09,3.4,0.27,6.78,1.3,10.05c2.3,7.29,7.28,8.68,13.33,7.65c5.57-0.95,10.48-3.64,15.17-6.74c0.53-0.35,1.06-0.69,1.6-1.01
	C159.71,126.62,159.84,126.72,160.32,126.87z"/>
<g>
	<path class="st2" d="M198.15,62.34h-2.49V40.01h2.49V62.34z"/>
	<path class="st2" d="M214.68,39.06L232.1,57.3v-17.3h2.49v23.34l-17.42-18.21v17.21h-2.49V39.06z"/>
	<path class="st2" d="M253.99,38.73l8.12,18.75l8.14-18.75l4.53,23.6h-2.55l-2.87-15.1h-0.06l-7.2,16.02l-7.17-16.02h-0.06
		l-2.87,15.1h-2.55L253.99,38.73z"/>
	<path class="st2" d="M311.63,51.2c0,6.43-5.27,11.52-11.64,11.52s-11.64-5.09-11.64-11.52c0-6.4,5.27-11.58,11.64-11.58
		S311.63,44.81,311.63,51.2z M290.84,51.17c0,5.03,4.09,9.24,9.15,9.24s9.15-4.21,9.15-9.24c0-5.06-4.03-9.24-9.15-9.24
		C294.87,41.93,290.84,46.11,290.84,51.17z"/>
	<path class="st2" d="M326.86,40.01h3.67c4.06,0,7.46,1.48,7.46,6.04c0,1.81-0.68,3.35-2.19,4.35c2.67,0.65,4.24,3.05,4.24,5.72
		c0,4.44-3.58,6.22-8,6.22h-5.18V40.01z M329.35,49.84h0.95c2.81,0,5.21-0.33,5.21-3.79c0-3.38-2.13-3.73-5.18-3.73h-0.98V49.84z
		 M329.35,60.03h2.49c2.78,0,5.72-0.68,5.72-4.09c0-3.47-3.32-3.97-6.04-3.97h-2.16V60.03z"/>
	<path class="st2" d="M358.08,62.34h-2.49V40.01h2.49V62.34z"/>
	<path class="st2" d="M376.95,60.03h6.16v2.31h-8.65V40.01h2.49V60.03z"/>
	<path class="st2" d="M399.96,62.34h-2.49V40.01h2.49V62.34z"/>
	<path class="st2" d="M419.69,56l-2.7,6.34h-2.72l10.31-23.4l10.04,23.4h-2.75L429.23,56H419.69z M424.52,44.75l-3.82,8.94h7.55
		L424.52,44.75z"/>
	<path class="st2" d="M451.39,62.34h-2.49V40.01h3.23c4.24,0,8.17,1.13,8.17,6.16c0,3.44-2.16,5.86-5.6,6.16l7.11,10.01h-3.05
		l-6.75-9.8h-0.62V62.34z M451.39,50.34h0.77c2.81,0,5.66-0.53,5.66-4c0-3.67-2.69-4.03-5.69-4.03h-0.74V50.34z"/>
	<path class="st2" d="M479.35,62.34h-2.49V40.01h2.49V62.34z"/>
	<path class="st2" d="M499.07,56l-2.7,6.34h-2.72l10.31-23.4L514,62.34h-2.75L508.61,56H499.07z M503.9,44.75l-3.82,8.94h7.55
		L503.9,44.75z"/>
</g>
<path class="st2" d="M60.05,157.9c15.58-19.24,56.33-65.35,72.05-84.76c0.45,1.15-0.1,1.71-0.36,2.3
	c-5.62,12.84-11.01,25.77-14.8,39.32c-2.01,7.19-3.68,14.45-3.39,22.02c0.08,2.15,0.46,4.24,1.22,6.23
	c1.67,4.35,5.53,6.51,10.43,6.12c5.84-0.47,11.07-2.75,16.2-5.36c3.35-1.71,6.56-3.67,9.68-5.79c0.46-0.32,0.86-0.82,1.51-0.79
	c0.31,0.3,0.14,0.53-0.06,0.76c-10.11,11.7-21.71,21.31-36.41,26.55c-9.32,3.32-18.9,4.32-28.73,3.14
	C77.57,166.48,66.68,162.18,60.05,157.9"/>
<path class="st3" d="M60.05,158.23c-4.24-2.83-8.48-5.65-11.31-8.48c-1.08-0.82,0.47-1.86,1.41-2.83
	c15.1-15.53,24.91-31.13,32.19-51.75c2.42-6.86,4.23-13.88,5.52-21.11c1.52,19.23-0.48,35.26-2.38,54.48"/>
<path d="M159,138.36"/>
<path d="M159,138.36"/>
<g>
</g>
<g>
</g>
<g>
</g>
<g>
</g>
<g>
</g>
<g>
</g>
</svg>
